<svg xmlns="http://www.w3.org/2000/svg" xmlns:xlink="http://www.w3.org/1999/xlink" id="Capa_1" x="0px" y="0px" viewBox="0 0 625 406" style="enable-background:new 0 0 625 406;" xml:space="preserve"><style type="text/css">	.st0{fill:none;stroke:#000000;stroke-width:2.7355;stroke-miterlimit:10;}	.st1{fill:#FFFFFF;}	.st2{fill:#A0BF1B;}</style><g>	<path class="st0" d="M313.6,199.7"></path></g><g>	<path d="M141.9,64.3"></path>	<path class="st1" d="M50.9,221c10.5,0,19,2.3,25.5,6.9c6.5,4.6,9.7,11.6,9.7,21c0,4.2-0.8,7.8-2.3,10.9c-1.5,3.1-3.4,5.8-5.5,8  s-4.5,4-6.9,5.2c-2.5,1.3-4.6,2.2-6.4,2.6v0.3c3.3,0.6,6.4,1.6,9.3,3.1c2.9,1.5,5.5,3.4,7.8,5.7s4.1,4.9,5.4,7.9c1.4,3,2,6.2,2,9.7  c0,9.9-3.8,17.9-11.3,23.9c-7.5,6-18.6,9-33.1,9c-6.3,0-27.6-0.2-33.5-0.3V221.2C18.5,221.1,43.8,221,50.9,221z M42.8,269.3  c2.9,0,5.7-0.4,8.3-1.2c2.6-0.8,4.9-2,6.8-3.5c1.9-1.5,3.4-3.3,4.5-5.4c1.1-2.1,1.6-4.4,1.6-7c0-5.2-1.6-8.9-4.7-11  c-3.2-2.1-7.3-3.2-12.4-3.2c-2.3,0-4.6,0-7.1,0c-2.4,0-4.8,0.1-7.3,0.2v31.2L42.8,269.3L42.8,269.3z M32.5,318.1  c2.6,0.2,5.3,0.4,8,0.6c2.8,0.2,5.4,0.2,7.9,0.2s4.9-0.3,7.2-0.9s4.4-1.5,6.2-2.7c1.8-1.2,3.2-2.6,4.2-4.4s1.5-3.8,1.5-6.1  c0-3.5-0.7-6.4-2.2-8.7c-1.5-2.3-3.4-4.2-5.7-5.6s-4.8-2.5-7.5-3.1s-5.3-0.9-7.8-0.9H32.5V318.1z"></path>	<path class="st1" d="M110.7,335.3V221h20.8v114.3H110.7z"></path>	<path class="st1" d="M327.6,239.6v95.7h-20.8v-95.7h-33.2V221h86.7v18.6H327.6z"></path>	<path class="st1" d="M376,335.3V221h20.8v114.3H376z"></path>	<path class="st1" d="M500,328.4c-4.4,2.1-9.1,3.8-14.1,5.1c-5,1.2-11.1,1.9-18.3,1.9c-8.6,0-16.1-1.5-22.5-4.6s-11.7-7.1-16-12.3  s-7.5-11.1-9.6-17.9c-2.1-6.8-3.2-14-3.2-21.5c0-8.3,1.4-16,4.2-23.1s6.8-13.2,11.9-18.4c5.1-5.2,11.4-9.2,18.7-12.2  c7.3-2.9,15.6-4.4,24.7-4.4c4.3,0,8.4,0.2,12.4,0.8c4,0.5,7.4,1.4,10.3,2.8c0,4.2-0.1,8.3-0.3,12.4c-0.2,4.1-0.5,7.1-0.7,9.1  c-4-2.1-8-3.8-12-4.9s-8.2-1.7-12.4-1.7c-6.8,0-12.4,1.1-16.9,3.2c-4.5,2.1-8,5-10.7,8.6c-2.7,3.6-4.5,7.7-5.6,12.4  c-1.1,4.7-1.6,9.5-1.6,14.4c0,5.6,0.8,10.8,2.4,15.5c1.6,4.8,3.8,8.9,6.8,12.3s6.5,6.1,10.8,8.1s9.1,3,14.4,3  c4.7,0,9.3-0.6,13.6-1.9s8.7-2.8,13-4.7L500,328.4z"></path>	<path class="st1" d="M592,335.3l-8-22.5h-41.2l-8.1,22.5h-23.2L553.9,221h19.2l42.5,114.4H592z M564.9,240.3h-2.7  C562,242.2,548,295,548,295h30.5L564.9,240.3z"></path>	<path class="st1" d="M249.1,237.8c-2.1-2.5-4.4-4.7-6.9-6.7c54.3-44.8,41.3-152.7,35.5-137.2c-7.5,19.8-63.3,47.8-66.8,49.1  c-31.5,12-59.3,64.2-45.7,85c0,0,50.1-47.3,84.1-70.2c0,0-76.6,67-87.1,86.4c-0.2,0.4-0.4,0.8-0.6,1.2c-2.2,3.3-4.2,6.8-5.7,10.6  c-2.9,7.1-4.3,14.8-4.3,23.1c0,7.5,1,14.7,3.1,21.4c2.1,6.8,5.2,12.7,9.5,17.9c4.2,5.2,9.6,9.3,16,12.4c6.4,3,13.9,4.6,22.5,4.6  c8.7,0,16.7-1.5,24-4.4c7.3-2.9,13.6-7,18.8-12.2s9.4-11.3,12.3-18.4c2.9-7.1,4.4-14.8,4.4-23.1c0-7.5-1.1-14.7-3.3-21.5  C256.7,248.9,253.4,242.9,249.1,237.8z M238,294c-1.4,4.8-3.4,8.9-6.1,12.4c-2.7,3.5-6.2,6.2-10.3,8.2c-4.2,2-9.1,3-14.7,3  c-5.3,0-10-1.1-14.1-3.3s-7.6-5.1-10.4-8.8c-2.8-3.6-5-7.9-6.4-12.7c-1.5-4.8-2.2-9.8-2.2-15.1c0-5.6,0.7-10.7,2-15.5  c1.4-4.8,3.4-8.9,6.1-12.4c15.9,0.5,29.4-2.1,40.9-7c3.5,2.1,6.4,4.7,8.9,7.9c2.8,3.7,4.9,7.9,6.4,12.7c1.5,4.8,2.2,9.8,2.2,15  C240,284.1,239.3,289.3,238,294z"></path>	<path class="st2" d="M501.1,195.3c26.7,5.9-67.2-24.8-122.6-34.1c-73.1-12.3-114.9-15.9-114.9-15.9c-20-2.4-2-29.1-2-29.1  c8.6-27,6.2-50.8,6.2-50.8C299.9,40,310,5.3,310,5.3c-16.7-0.2-79.4,41-79.4,41c-15,10.7-11.4,21.6-11.4,21.6  c0.9,16.7-10.1,41.3-10.1,41.3c-4.6,6.5-4.9,12-4.9,12c-32.3-10.2-39.2,2.7-39.2,2.7c-3.3,0.8-5.4,4.2-5.4,4.2  c4.1-0.1,8.8,2.2,8.8,2.2c30.8,44.2,96.4,34.7,96.4,34.7s25.5-2.2,65.6,11.2c0,0,35.4,14.2,91.3,16.1c0,0,27.5,1.6,64.6,9.4  c0,0-23.8-12.3-81-16.9c0,0-45.9-1.8-86.7-21.7c0,0,32.6,1.6,82.7,10.5C401.3,173.5,437.1,181.1,501.1,195.3z"></path>	<path class="st1" d="M83.7,391.4c-1.7,0.8-3.5,1.5-5.2,2s-3.9,0.7-6.4,0.7c-2.7,0-5.1-0.5-7.2-1.5s-3.8-2.3-5.3-4  c-1.4-1.7-2.5-3.6-3.2-5.8c-0.7-2.2-1.1-4.5-1.1-7c0-2.7,0.4-5.2,1.3-7.5c0.9-2.3,2.2-4.3,3.8-6c1.7-1.7,3.7-3,6.2-4  c2.4-1,5.2-1.4,8.3-1.4c1.7,0,3.3,0.1,4.7,0.4c1.4,0.2,2.6,0.6,3.7,1.1c0,0.8,0,1.5-0.1,2.3c-0.1,0.8-0.1,1.3-0.2,1.7  c-1.3-0.9-2.7-1.5-4.3-1.9c-1.6-0.4-3.2-0.6-4.8-0.6c-2.7,0-5,0.4-6.9,1.3c-1.9,0.9-3.5,2-4.7,3.5c-1.2,1.5-2.1,3.1-2.6,5  c-0.5,1.9-0.8,3.9-0.8,5.9c0,2.1,0.3,4.1,1,5.9c0.6,1.9,1.6,3.5,2.8,4.9s2.7,2.5,4.5,3.3s3.7,1.2,5.9,1.2c2,0,3.9-0.3,5.7-0.8  c1.8-0.5,3.4-1.1,4.8-1.9L83.7,391.4z"></path>	<path class="st1" d="M161.7,394.1c-0.2,0-23.1-32.1-23.1-32.1l-0.1,32.1h-3.2v-37.2h3.3l23,31.4l0-31.4h3.2v37.2H161.7z"></path>	<path class="st1" d="M194.8,362.1c-1.4-0.7-4.4-1.4-5.7-1.7c-1.3-0.3-2.7-0.5-4.1-0.5c-1,0-1.9,0.1-2.7,0.3  c-0.8,0.2-1.6,0.5-2.3,0.9c-0.7,0.4-1.2,1-1.6,1.7c-0.4,0.7-0.6,1.6-0.6,2.6c0,1.5,0.4,2.7,1.2,3.7c0.8,1,1.9,2,3.1,2.8  s2.6,1.6,4.1,2.4c1.4,0.8,2.8,1.6,4.1,2.5c1.3,0.9,2.3,2,3.1,3.3c0.8,1.2,1.2,2.8,1.2,4.5c0,1.6-0.4,3-1.1,4.2  c-0.8,1.2-1.7,2.2-2.9,3c-1.2,0.8-2.6,1.4-4.1,1.7c-1.5,0.4-3,0.6-4.6,0.6c-1.2,0-2.4,0-3.7-0.2c-1.2-0.1-2.8-0.5-4-0.8  c0-0.7,0-2.8,0-3.6c2.9,0.9,3.2,1,4.6,1.2s2.8,0.4,4.2,0.4c1.1,0,2.1-0.1,3.1-0.3s1.8-0.5,2.6-0.9c0.7-0.4,1.3-1,1.8-1.8  c0.4-0.8,0.7-1.7,0.7-2.8c0-1.5-0.4-2.8-1.2-3.8c-0.8-1-1.9-2-3.1-2.9c-1.3-0.9-2.6-1.7-4.1-2.4s-2.8-1.6-4.1-2.5  c-1.3-0.9-2.3-2-3.1-3.2c-0.8-1.2-1.2-2.7-1.2-4.4c0-1.6,0.4-2.9,1.1-4.1c0.7-1.1,1.6-2.1,2.8-2.8c1.7-1.1,3.7-1.7,5.8-2  c2.1-0.3,4.1-0.2,6.2,0.2c1.5,0.3,2.9,0.8,4.3,1.4c0.1,0.1,0.3,0.1,0.4,0.2C194.8,359.6,194.8,361.4,194.8,362.1z"></path>	<path class="st1" d="M232.3,356.9v17.9c0,2.6-0.2,5.1-0.5,7.4c-0.4,2.4-1.1,4.4-2.2,6.2c-1.1,1.8-2.7,3.2-4.7,4.2  c-2,1-4.7,1.5-8,1.5c-3,0-5.4-0.5-7.2-1.6s-3-2.5-3.9-4.3s-1.4-3.8-1.6-6c-0.2-2.2-0.3-4.5-0.3-6.8v-18.4h3.3v17.9  c0,2,0.1,3.9,0.2,5.9c0.2,1.9,0.6,3.7,1.3,5.2c0.7,1.5,1.7,2.8,3.1,3.8c1.4,1,3.3,1.4,5.8,1.4c2.5,0,4.6-0.4,6.1-1.3  c1.5-0.9,2.6-2,3.4-3.5c0.8-1.5,1.3-3.1,1.5-5c0.2-1.9,0.4-3.9,0.4-6v-18.3H232.3z"></path>	<path class="st1" d="M242.8,394.1v-37.2h3.3v34.2h15.8v3H242.8z"></path>	<path class="st1" d="M279.5,359.9v34.2h-3.3v-34.2H264v-3h27.5v3H279.5z"></path>	<path class="st1" d="M344,394.1h-3.3v-37c3-0.1,5.9-0.2,8.8-0.2c1.5,0,3,0.2,4.5,0.5c1.4,0.4,2.7,0.9,3.8,1.6s2,1.7,2.6,3  s1,2.7,1,4.4c0,1.5-0.3,2.9-0.8,4.2s-1.3,2.3-2.3,3.2s-2,1.8-3.4,2.1c-2.1,0.5-4.4,0.9-5.9,1.2l12.2,17.1h-4.5l-11.3-16.8  c-0.6,0-0.5,0-1.3,0L344,394.1L344,394.1z M345.9,374.6c0.6,0,1.2,0,1.9,0c1.1,0,2.3-0.2,3.5-0.5s2.2-0.7,3.1-1.3  c0.9-0.6,1.7-1.3,2.3-2.3s0.9-2,0.9-3.4c0-1.3-0.2-2.4-0.7-3.4c-0.5-0.9-1.1-1.7-1.9-2.3c-0.8-0.6-1.7-1-2.8-1.3  c-1.1-0.3-2.2-0.4-3.4-0.4c-0.8,0-1.6,0-2.4,0c-0.8,0-1.6,0-2.4,0.1v14.5C344.7,374.5,345.3,374.5,345.9,374.6z"></path>	<path class="st1" d="M371.2,394.1v-37.2h18.7v3h-15.4v10.5h14.4v3h-14.4v17.8h15.8v3H371.2z"></path>	<path class="st1" d="M441.4,394.1v-37.2h3.3v34.2h15.8v3H441.4z"></path>	<path class="st1" d="M478.1,359.9v34.2h-3.3v-34.2h-12.2v-3h27.5v3H478.1z"></path>	<path class="st1" d="M496.6,356.9h13.3c2.6,0,5,0.5,7.1,1.5c2.1,1,3.8,2.3,5.3,3.9s2.5,3.6,3.3,5.8s1.1,4.6,1.1,7  c0,2.8-0.5,5.4-1.4,7.7c-0.9,2.3-2.2,4.3-3.9,6s-3.7,3-6,3.9c-2.3,0.9-4.9,1.4-7.7,1.4h-11.1V356.9z M499.9,391  c1.8,0.1,3.4,0.1,4.8,0.1c1.5,0,2.8,0,4,0c2.2,0,4.2-0.4,6-1.2s3.3-1.9,4.5-3.3c1.2-1.4,2.2-3,2.8-5c0.7-1.9,1-4,1-6.3  c0-2.1-0.3-4.1-1-6c-0.7-1.9-1.6-3.5-2.8-4.9c-1.2-1.4-2.7-2.5-4.5-3.3s-3.7-1.2-5.9-1.2h-8.9L499.9,391L499.9,391z"></path>	<path class="st1" d="M568,393.4c-0.5-0.4-0.7-1-0.7-1.8s0.2-1.3,0.7-1.8c0.5-0.5,1-0.7,1.7-0.7c0.7,0,1.3,0.2,1.8,0.7  c0.5,0.4,0.7,1,0.7,1.8s-0.2,1.3-0.7,1.8c-0.5,0.5-1,0.7-1.8,0.7C569,394.1,568.4,393.9,568,393.4z"></path>	<path class="st1" d="M558.9,394.1l-3.2-8.1h-17.3l-3.3,8.1h-3.7l14.3-37.2h3.3l13.6,37.2H558.9z M547.4,359.9H547  c-0.1,0.3-3,9.1-3.5,10.7s-4.1,12.4-4.1,12.4h15.8L547.4,359.9z"></path>	<path class="st1" d="M121.9,361.4c2.8,3.1,4.3,7.6,4.3,13.4c0,6.2-1.5,11-4.5,14.4c-3,3.4-7.3,5-12.8,5c-5.3,0-9.3-1.6-12.2-4.8  s-4.3-7.8-4.3-13.8c0-6.1,1.5-10.8,4.5-14c3-3.3,7.2-4.9,12.7-4.9C114.9,356.7,119,358.2,121.9,361.4z M99.1,363.4  c-2.3,2.7-3.5,6.7-3.5,12c0,5.4,1.1,9.4,3.4,12.2c2.3,2.8,5.6,4.1,10,4.1c4.5,0,7.9-1.4,10.3-4.2s3.6-6.9,3.6-12.3  c0-5.2-1.1-9.2-3.4-11.9c-2.3-2.7-5.6-4-10-4C104.9,359.3,101.4,360.6,99.1,363.4z"></path>	<path class="st1" d="M326.2,361.4c2.8,3.1,4.3,7.6,4.3,13.4c0,6.2-1.5,11-4.5,14.4c-3,3.4-7.3,5-12.8,5c-5.3,0-9.3-1.6-12.2-4.8  c-2.8-3.2-4.3-7.8-4.3-13.8c0-6.1,1.5-10.8,4.5-14c3-3.3,7.2-4.9,12.7-4.9C319.3,356.7,323.4,358.2,326.2,361.4z M303.5,363.4  c-2.3,2.7-3.5,6.7-3.5,12c0,5.4,1.1,9.4,3.4,12.2c2.3,2.8,5.6,4.1,10,4.1c4.5,0,7.9-1.4,10.3-4.2s3.5-6.9,3.5-12.3  c0-5.2-1.1-9.2-3.4-11.9c-2.3-2.7-5.6-4-10-4C309.2,359.3,305.8,360.6,303.5,363.4z"></path>	<path class="st1" d="M419.9,362.8c-1.1-0.9-4.4-2.1-5.7-2.4c-1.3-0.3-2.7-0.5-4.1-0.5c-1,0-1.9,0.1-2.7,0.3s-1.6,0.5-2.3,0.9  s-1.2,1-1.6,1.7s-0.6,1.6-0.6,2.6c0,1.5,0.4,2.7,1.2,3.7c0.8,1,1.9,2,3.1,2.8c1.3,0.8,2.6,1.6,4.1,2.4c1.5,0.8,2.8,1.6,4.1,2.5  c1.3,0.9,2.3,2,3.1,3.3c0.8,1.2,1.2,2.8,1.2,4.5c0,1.6-0.4,3-1.1,4.2c-0.8,1.2-1.7,2.2-2.9,3c-1.2,0.8-2.6,1.4-4.1,1.7  c-1.5,0.4-3,0.6-4.6,0.6c-1.2,0-2.4,0-3.7-0.2c-1.2-0.1-2.8-0.5-4-0.8c0-0.7,0-3.4,0-4.2c1.2,0.7,3.2,1.5,4.6,1.8  c1.4,0.3,2.8,0.4,4.2,0.4c1.1,0,2.1-0.1,3.1-0.3c1-0.2,1.8-0.5,2.6-0.9s1.3-1,1.8-1.8s0.7-1.7,0.7-2.8c0-1.5-0.4-2.8-1.2-3.8  c-0.8-1-1.9-2-3.1-2.9c-1.3-0.9-2.6-1.7-4.1-2.4c-1.5-0.8-2.8-1.6-4.1-2.5c-1.3-0.9-2.3-2-3.1-3.2c-0.8-1.2-1.2-2.7-1.2-4.4  c0-1.6,0.4-2.9,1-4.1c0.7-1.1,1.6-2.1,2.8-2.8c1.7-1.1,3.7-1.7,5.8-2c2-0.3,4.1-0.2,6.2,0.2c1.5,0.3,2.9,0.8,4.3,1.4  c0.1,0.1,0.3,0.1,0.4,0.2C419.9,359.6,419.9,362.1,419.9,362.8z"></path></g></svg>